<?xml version="1.0" encoding="UTF-8" standalone="no"?>
<!-- Created with Inkscape (http://www.inkscape.org/) -->

<svg
   width="1920"
   height="1920"
   viewBox="0 0 1920 1920"
   version="1.1"
   id="SVGRoot"
   xmlns="http://www.w3.org/2000/svg"
   xmlns:svg="http://www.w3.org/2000/svg">
  <defs
     id="defs21149" />
  <g
     id="layer1">
    <circle
       style="fill:#00aa44;fill-opacity:1;stroke-width:12.9265"
       id="path2583"
       cx="959.7229"
       cy="960.2951"
       r="960" />
    <g
       id="g5679"
       transform="matrix(12.078806,0,0,12.599304,-3.1472682,-15.957995)"
       style="fill:#1e1e1e;fill-opacity:1">
      <ellipse
         style="fill:#1e1e1e;fill-opacity:1;stroke-width:1.01495"
         id="path2583-3"
         cx="79.860519"
         cy="77.171188"
         rx="76.996132"
         ry="73.791786" />
    </g>
    <path
       style="fill:#00aa44;fill-opacity:1;stroke-width:3.92633"
       d="M 764.09193,1902.4974 C 567.82283,1861.1665 383.93383,1756.7701 251.57063,1611.532 150.46813,1500.595 73.983031,1360.0789 34.426531,1212.6009 c -12.4499,-46.4165 -23.9667,-105.2655 -23.4364,-119.7552 0.1728,-4.7193 4.2981,13.0761 9.1676,39.5453 53.4258,290.4139 233.156499,537.2267 490.713399,673.8661 100.0832,53.0962 189.187,82.3899 314.7242,103.4685 6.7908,1.1404 5.6632,1.6821 -3.844,1.8472 -7.3996,0.1286 -33.3463,-3.9555 -57.6594,-9.0754 z m 330.58037,7.2282 c 125.5372,-21.0786 214.641,-50.3723 314.7242,-103.4685 257.5568,-136.6394 437.2875,-383.4522 490.7134,-673.8661 4.8694,-26.4692 8.9949,-44.2646 9.1676,-39.5453 0.531,14.4897 -10.9866,73.3387 -23.4363,119.7552 -48.8121,181.9854 -153.371,351.4622 -291.207,472.0107 -99.0691,86.6437 -237.0898,162.2268 -363.5014,199.0613 -48.1393,14.027 -120.2718,29.0241 -135.6945,28.2123 -10.2569,-0.5402 -10.2657,-0.5652 -0.766,-2.1596 z m -214.72067,-65.8622 c -78.2636,-7.345 -87.6268,-11.3635 -146.7793,-62.9947 C 573.84643,1641.8011 358.09433,1327.0378 134.73653,907.8036 76.354331,798.2225 79.181831,805.2551 84.027831,781.6801 c 2.2823,-11.1029 5.4935,-21.0537 7.1359,-22.1128 1.6424,-1.059 14.908199,8.0971 29.479499,20.3468 31.9844,26.8886 111.0839,81.9775 153.344,106.7965 193.4968,113.639 410.0285,183.1653 616.0138,197.796 l 39.42,2.8 -0.9805,379.4211 c -0.8626,333.8503 -1.6729,379.4866 -6.7463,379.9666 -3.1712,0.2996 -21.9554,-0.9738 -41.7426,-2.8309 z m 119.5631,-377.5991 0.98067,-377.9886 50.8392,-2.7917 c 252.7768,-13.8802 507.4263,-107.486 736.7558,-270.8218 45.0749,-32.1038 45.7968,-32.1621 50.1062,-4.0454 2.2839,14.9024 -0.5071,21.5715 -40.4647,96.7014 -227.4411,427.6424 -442.8488,742.1792 -604.7512,883.0541 -28.7133,24.9841 -42.8336,34.51 -55.8732,37.6931 -30.1406,7.3577 -93.4065,16.1394 -116.4509,16.1639 l -22.12237,0.025 0.9805,-377.9886 z M 10.990131,827.0342 c -0.5303,-14.4897 10.9865,-73.3386 23.4364,-119.7551 48.8121,-181.9854 153.370899,-351.4624 291.206899,-472.0107 99.0691,-86.6436 237.0898,-162.226795 363.5013,-199.061295 48.1393,-14.027 120.2719,-29.0242001 135.6946,-28.2123001 10.2569,0.5398 10.2657,0.5646 0.766,2.1597001 -125.5372,21.0785 -214.641,50.3722 -314.7242,103.468395 -257.5569,136.6393 -437.287599,383.4522 -490.713399,673.866 -4.8695,26.4692 -8.9948,44.2646 -9.1676,39.5453 z M 1900.7613,792.4322 c -7.693,-47.4447 -27.355,-121.5656 -44.4005,-167.3777 C 1740.7835,314.4229 1470.5007,83.652805 1147.3317,19.678005 c -22.8348,-4.5204 -46.1868,-8.4647 -51.8934,-8.7651 -9.1438,-0.4813 -9.3422,-0.7534 -1.6701,-2.2919001 11.7627,-2.3588 85.4734,12.4372001 137.3646,27.5733001 126.5118,36.9021 264.447,112.443295 363.5014,199.074095 137.8283,120.5417 242.3195,289.9013 291.2204,472.0107 13.1075,48.8132 24.9193,110.9491 23.0329,121.1638 -0.6703,3.6269 -4.3267,-12.5779 -8.1262,-36.0107 z M 1239.7817,742.3714 998.57343,741.308 V 634.0575 c 0,-58.9878 1.1501,-208.766 2.55127,-332.8405 l 2.5477,-225.590095 15.7075,0.061 c 8.639,0.034 17.5436,1.3873 19.788,3.0079 2.2443,1.6206 14.7116,19.1889 27.7048,39.040895 92.6994,141.631 235.3512,283.6184 398.7378,396.8808 97.1057,67.3154 199.4023,125.5947 306.5323,174.6345 20.6,9.4299 39.0405,19.1483 40.9783,21.5965 1.9382,2.4481 4.736,11.2189 6.2177,19.4905 l 2.6938,15.0393 -170.5232,-0.9718 c -93.7876,-0.5347 -279.0667,-1.4506 -411.7314,-2.0355 z m -898.52517,-4.9687 -244.091403,-2.0502 1.3542,-10.0262 c 2.422003,-17.9331 7.040303,-21.8118 47.324803,-39.7453 51.8306,-23.0737 159.7544,-79.2011 210.7882,-109.6236 203.7059,-121.4343 391.8746,-295.0941 503.6653,-464.8301 22.6509,-34.391695 22.9969,-34.697995 41.1588,-36.435195 10.0737,-0.9636 19.4837,-0.6962 20.9111,0.5941 1.4274,1.2903 3.8465,151.686595 5.3757,334.213995 l 2.7803,331.868 -172.5878,-0.9576 c -94.9234,-0.5268 -282.429,-1.8803 -416.6792,-3.0079 z"
       id="path617" />
    <path
       style="opacity:0.583412;fill:#000000;fill-opacity:1;stroke-width:3.92633"
       d="M 756.40403,1906.5078 C 404.70243,1832.4456 123.38183,1566.6034 30.582531,1220.6219 13.939431,1158.5718 6.7327313,1114.3966 7.4473313,1078.809 c 0.3383,-16.851 1.2701,-24.3217 2.0707,-16.6016 3.7515997,36.1787 17.9256997,110.4841 28.6881997,150.3935 68.599599,254.3785 240.784599,470.6389 472.664899,593.6562 103.1513,54.7238 203.8007,87.2901 321.5479,104.0404 l 37.3818,5.3178 -34.5957,0.1006 c -21.3027,0.063 -51.5809,-3.4761 -78.8011,-9.2082 z m 331.44457,3.7897 c 384.7989,-54.7402 694.0969,-326.451 794.2128,-697.6966 10.7626,-39.9094 24.9367,-114.2148 28.6883,-150.3935 0.8001,-7.7201 1.7323,-0.2493 2.0706,16.6016 0.7148,35.5876 -6.4921,79.7628 -23.1353,141.8129 -93.5921,348.9378 -380.5332,617.4968 -734.6654,687.6012 -22.997,4.5524 -55.5775,8.0343 -73.0352,7.8055 l -31.5176,-0.4133 z m -211.93977,-58.3568 c -75.9395,-7.6357 -76.25,-7.7496 -120.0349,-44.0447 -175.711,-145.6537 -389.8168,-454.1772 -635.27,-915.415 l -48.704499,-91.522 4.3748,-23.2001 c 2.4061,-12.7601 5.7247,-25.479 7.3746,-28.2642 2.1482,-3.6264 12.511796,2.9638 36.503299,23.2126 44.9057,37.9001 112.6439,84.5744 170.4267,117.4306 53.5113,30.4273 66.5175,39.9123 24.976,18.2141 -62.8129,-32.8087 -142.1859,-85.742 -193.9496,-129.3437 -17.0515,-14.3628 -31.433099,-25.5492 -31.959199,-24.8588 -2.0399,2.6774 -9.7787,39.2843 -9.7787,46.2563 0,7.6029 76.952099,154.0474 136.515199,259.7964 213.5829,379.1983 422.9463,660.9022 565.6478,761.0935 21.7666,15.2824 46.8236,20.7745 116.5238,25.5401 21.0461,1.439 37.3549,4.1536 36.2419,6.0325 -2.2926,3.8702 -12.8185,3.7045 -58.8872,-0.9274 z m 117.2246,0.8836 c -1.1318,-1.9106 13.03497,-4.7036 31.48177,-6.2068 45.3607,-3.6963 107.7913,-14.0654 122.1857,-20.2937 30.5201,-13.2059 128.0236,-111.0823 202.096,-202.8692 130.6692,-161.9187 291.3938,-417.4094 451.0634,-717.0189 41.1165,-77.1525 41.3236,-77.6766 38.7362,-98.0266 -1.4307,-11.2526 -3.4341,-21.8654 -4.4521,-23.5838 -1.0176,-1.7185 -17.7796,8.3553 -37.2481,22.386 -66.0289,47.5865 -226.1343,142.9399 -239.4657,142.6178 -1.9278,-0.047 21.1161,-13.4336 51.209,-29.749 72.518,-39.3168 145.5722,-85.3856 201.9479,-127.3508 25.6025,-19.0582 26.0777,-19.2252 29.3091,-10.3011 7.4631,20.6103 8.8787,43.3144 3.2617,52.3159 -3.0516,4.8904 -23.3477,42.279 -45.1022,83.0857 -222.8847,418.0835 -439.7515,735.4652 -594.9378,870.6831 -18.4739,16.0968 -36.1835,32.4566 -39.3547,36.3549 -8.8948,10.9347 -51.6087,19.4271 -146.8006,29.1875 -12.0295,1.2332 -22.79787,0.6793 -23.92957,-1.2307 z M 575.01723,1019.363 c 2.7748,-1.1586 6.0902,-1.0161 7.3676,0.3164 1.2773,1.3327 -0.9931,2.2806 -5.0452,2.1064 -4.478,-0.1925 -5.3888,-1.1428 -2.3224,-2.423 z m 829.09377,-9.2919 c 10.5674,-4.7377 16.6365,-4.7377 9.6099,0 -3.1713,2.1382 -8.3606,3.7885 -11.5319,3.6672 -3.8018,-0.1452 -3.1472,-1.3945 1.922,-3.6672 z m -905.25217,-16.042 c -3.1713,-2.1382 -4.0362,-3.8876 -1.922,-3.8876 2.1142,0 6.4386,1.7494 9.6099,3.8876 3.1713,2.1383 4.0362,3.88769 1.922,3.88769 -2.1142,0 -6.4387,-1.74939 -9.6099,-3.88769 z m 949.45767,0.6767 c 3.1713,-2.0443 10.0904,-4.9237 15.3759,-6.3987 6.6787,-1.8639 7.8512,-1.5482 3.8439,1.035 -3.1712,2.0443 -10.0904,4.9237 -15.3758,6.3988 -6.6788,1.86389 -7.8513,1.54809 -3.844,-1.0351 z M 468.10713,981.9976 c -3.1713,-2.1381 -4.0362,-3.8876 -1.9219,-3.8876 2.1141,0 6.4385,1.7495 9.6098,3.8876 3.1713,2.1383 4.0362,3.8877 1.922,3.8877 -2.1142,0 -6.4386,-1.7494 -9.6099,-3.8877 z m 1010.96107,0 c 3.1713,-2.1381 7.4957,-3.8876 9.6099,-3.8876 2.1142,0 1.2492,1.7495 -1.922,3.8876 -3.1713,2.1383 -7.4957,3.8877 -9.6099,3.8877 -2.1142,0 -1.2492,-1.7494 1.922,-3.8877 z M 445.04343,971.9715 c -5.2855,-3.1524 -7.8802,-5.7316 -5.766,-5.7316 2.1142,0 8.1685,2.5792 13.4539,5.7316 5.2854,3.1523 7.8801,5.7314 5.7659,5.7314 -2.1142,0 -8.1684,-2.5791 -13.4538,-5.7314 z m 1057.08847,0 c 5.2855,-3.1524 11.3397,-5.7316 13.4539,-5.7316 2.1142,0 -0.4804,2.5792 -5.766,5.7316 -5.2854,3.1523 -11.3396,5.7314 -13.4538,5.7314 -2.1141,0 0.4805,-2.5791 5.7659,-5.7314 z M 418.13573,959.94 c -5.2855,-3.1523 -7.8802,-5.7316 -5.766,-5.7316 2.1142,0 8.1684,2.5793 13.4538,5.7316 5.2855,3.1523 7.8802,5.7315 5.766,5.7315 -2.1142,0 -8.1684,-2.5792 -13.4538,-5.7315 z m 1114.74787,-2.0053 c 7.3996,-4.2266 15.1836,-7.6847 17.2978,-7.6847 2.1142,0 -2.2102,3.4581 -9.6099,7.6847 -7.3995,4.2266 -15.1836,7.6848 -17.2978,7.6848 -2.1141,0 2.2103,-3.4582 9.6099,-7.6848 z M 379.69613,941.8928 c -11.628,-6.4092 -19.412,-11.6531 -17.2979,-11.6531 2.1142,0 13.3578,5.2439 24.9858,11.6531 11.6279,6.4092 19.412,11.653 17.2978,11.653 -2.1142,0 -13.3577,-5.2438 -24.9857,-11.653 z m -32.6465,-15.9961 c -1.3466,-2.2734 0.1963,-2.9457 3.6171,-1.5761 6.6594,2.6661 7.8778,5.5407 2.3485,5.5407 -1.9894,0 -4.6739,-1.7841 -5.9656,-3.9646 z M 7.4473313,841.071 C 6.7327313,805.4834 13.939431,761.3082 30.582531,699.2581 124.17473,350.3203 411.11583,81.761305 765.24803,11.657005 c 22.997,-4.5525001 55.5775,-8.0345001 73.0352,-7.8056001 l 31.5176,0.4132 -37.3818,5.3178 C 447.62013,64.322605 138.32203,336.0335 38.206231,707.2791 c -10.7625,39.9094 -24.9366,114.2147 -28.6881997,150.3934 -0.8006,7.7202 -1.7324,0.2493 -2.0707,-16.6015 z M 1910.3552,857.3713 C 1908.9396,830.7931 1894.0274,751.7105 1882.0535,707.2791 1813.5207,452.9778 1641.2773,236.6405 1409.3965,113.6229 1306.2452,58.899005 1205.5957,26.332705 1087.8486,9.5824049 l -37.3818,-5.3178 31.5176,-0.4132 c 17.4577,-0.229 50.0382,3.2531 73.0352,7.8056001 354.1384,70.1055 640.9461,338.534795 734.679,687.601095 16.9401,63.086 24.2852,109.2652 22.7532,143.0523 -0.7326,16.1694 -1.6765,22.9467 -2.0966,15.0609 z m -89.2035,-128.1592 c -3.8664,-16.8157 -6.9722,-21.532 -18.6421,-28.309 -7.7015,-4.4725 -10.5432,-6.8914 -6.3149,-5.3753 4.2284,1.5161 11.5121,3.6237 16.186,4.6835 6.4098,1.4534 9.9522,7.1454 14.4149,23.1618 6.912,24.8072 7.0263,26.0161 2.4564,26.0161 -1.9035,0 -5.5485,-9.0797 -8.1003,-20.1771 z M 89.390631,726.4028 c 3.6005,-20.0239 8.670196,-29.1499 16.193499,-29.1499 5.6328,0 5.6043,0.7172 -0.2996,7.5235 -3.5893,4.138 -7.543303,14.064 -8.786703,22.0577 -1.2433,7.9938 -3.956496,14.5341 -6.029396,14.5341 -2.2699,0 -2.6985,-5.952 -1.0778,-14.9654 z m 32.760199,-35.1657 c 5.2855,-3.1523 11.3397,-5.7315 13.4539,-5.7315 2.1142,0 -0.4805,2.5792 -5.7659,5.7315 -5.2855,3.1524 -11.3397,5.7315 -13.4539,5.7315 -2.1142,0 0.4805,-2.5791 5.7659,-5.7315 z m 1645.21427,-6.0157 c -7.3997,-4.2266 -11.7241,-7.6848 -9.6099,-7.6848 2.1142,0 9.8982,3.4582 17.2978,7.6848 7.3996,4.2266 11.724,7.6848 9.6098,7.6848 -2.114,0 -9.8981,-3.4582 -17.2977,-7.6848 z m -1614.46257,-8.021 c 7.3996,-4.2266 15.1836,-7.6847 17.2978,-7.6847 2.1142,0 -2.2102,3.4581 -9.6099,7.6847 -7.3996,4.2267 -15.1836,7.6848 -17.2978,7.6848 -2.1142,0 2.2103,-3.4581 9.6099,-7.6848 z M 1661.6562,631.8217 C 1615.1443,606.9964 1558.9264,575.2088 1536.7276,561.1826 1337.2753,435.1602 1175.714,282.1901 1067.4921,116.8994 1044.4576,81.717905 1038.878,75.603005 1027.8389,73.442405 c -7.0657,-1.383 -16.2758,-1.9084 -20.4669,-1.1676 -4.1911,0.7408 -7.81267,-0.4578 -8.04787,-2.6636 -0.241,-2.2622 6.62387,-3.5269 15.74767,-2.9011 23.2211,1.5926 33.473,4.4455 33.473,9.3149 0,2.3406 10.3049,19.9023 22.8999,39.025895 106.7862,162.1385 275.7657,321.5292 472.9707,446.1317 22.199,14.0262 78.4169,45.8138 124.9288,70.6391 46.5119,24.8253 82.8373,45.137 80.723,45.137 -2.1141,0 -41.8991,-20.3117 -88.411,-45.137 z m -1403.04477,-8.021 c 93.6498,-49.9848 140.6097,-78.6801 215.7047,-131.8088 150.7459,-106.6505 294.8837,-251.5301 380.3185,-382.2758 11.5308,-17.646195 20.9576,-34.090595 20.9485,-36.543195 -0.023,-6.074 49.8724,-11.2679 55.1681,-5.7428 2.7873,2.9081 -2.9709,4.2051 -18.8591,4.2477 -12.5793,0.034 -24.7078,1.3874 -26.9521,3.0079 -2.2445,1.6206 -14.7117,19.1889 -27.705,39.040895 -109.7172,167.6318 -293.1719,336.8545 -496.7587,458.2209 -42.529,25.3533 -178.518,97.3174 -183.5086,97.111 -1.6079,-0.066 35.1318,-20.4325 81.6437,-45.2578 z"
       id="path597" />
  </g>
</svg>
